<?xml version="1.0" encoding="UTF-8"?>
<svg xmlns="http://www.w3.org/2000/svg" xmlns:xlink="http://www.w3.org/1999/xlink" width="36pt" height="36pt" viewBox="0 0 36 36" version="1.1">
<g id="surface55852">
<path style=" stroke:none;fill-rule:nonzero;fill:rgb(25.882354%,64.705884%,96.078432%);fill-opacity:1;" d="M 23.25 27 L 4.5 27 L 4.5 2.25 L 17.25 2.25 L 23.25 8.25 Z M 23.25 27 "/>
<path style=" stroke:none;fill-rule:nonzero;fill:rgb(88.235295%,96.078432%,99.607843%);fill-opacity:1;" d="M 22.125 9 L 16.5 9 L 16.5 3.375 Z M 22.125 9 "/>
<path style=" stroke:none;fill-rule:nonzero;fill:rgb(8.235294%,39.607844%,75.294119%);fill-opacity:1;" d="M 8.25 12 L 20.25 12 L 20.25 13.5 L 8.25 13.5 Z M 8.25 15 L 17.25 15 L 17.25 16.5 L 8.25 16.5 Z M 8.25 18 L 20.25 18 L 20.25 19.5 L 8.25 19.5 Z M 8.25 21 L 17.25 21 L 17.25 22.5 L 8.25 22.5 Z M 8.25 21 "/>
<path style=" stroke:none;fill-rule:nonzero;fill:rgb(56.470591%,79.215688%,97.647059%);fill-opacity:1;" d="M 31.5 33 L 12.75 33 L 12.75 8.25 L 25.5 8.25 L 31.5 14.25 Z M 31.5 33 "/>
<path style=" stroke:none;fill-rule:nonzero;fill:rgb(88.235295%,96.078432%,99.607843%);fill-opacity:1;" d="M 30.375 15 L 24.75 15 L 24.75 9.375 Z M 30.375 15 "/>
<path style=" stroke:none;fill-rule:nonzero;fill:rgb(9.803922%,46.27451%,82.352942%);fill-opacity:1;" d="M 16.5 18 L 27.75 18 L 27.75 19.5 L 16.5 19.5 Z M 16.5 21 L 24.75 21 L 24.75 22.5 L 16.5 22.5 Z M 16.5 24 L 27.75 24 L 27.75 25.5 L 16.5 25.5 Z M 16.5 27 L 24.75 27 L 24.75 28.5 L 16.5 28.5 Z M 16.5 27 "/>
</g>
</svg>
