<?xml version="1.0" encoding="UTF-8"?>
<svg xmlns="http://www.w3.org/2000/svg" xmlns:xlink="http://www.w3.org/1999/xlink" width="36pt" height="36pt" viewBox="0 0 36 36" version="1.1">
<g id="surface49152">
<path style=" stroke:none;fill-rule:nonzero;fill:rgb(58.431375%,45.882353%,80.392158%);fill-opacity:1;" d="M 25.5 9 L 21 4.5 L 15 4.5 L 10.5 9 L 8.25 9 L 8.25 30 C 8.25 31.648438 9.601562 33 11.25 33 L 24.75 33 C 26.398438 33 27.75 31.648438 27.75 30 L 27.75 9 Z M 25.5 9 "/>
<path style=" stroke:none;fill-rule:nonzero;fill:rgb(45.490196%,32.941177%,70.19608%);fill-opacity:1;" d="M 18.375 29.25 L 17.625 29.25 C 17.023438 29.25 16.5 28.726562 16.5 28.125 L 16.5 13.875 C 16.5 13.273438 17.023438 12.75 17.625 12.75 L 18.375 12.75 C 18.976562 12.75 19.5 13.273438 19.5 13.875 L 19.5 28.125 C 19.5 28.726562 18.976562 29.25 18.375 29.25 Z M 23.625 29.25 C 23.023438 29.25 22.5 28.726562 22.5 28.125 L 22.5 13.875 C 22.5 13.273438 23.023438 12.75 23.625 12.75 C 24.226562 12.75 24.75 13.273438 24.75 13.875 L 24.75 28.125 C 24.75 28.726562 24.226562 29.25 23.625 29.25 Z M 12.375 29.25 C 11.773438 29.25 11.25 28.726562 11.25 28.125 L 11.25 13.875 C 11.25 13.273438 11.773438 12.75 12.375 12.75 C 12.976562 12.75 13.5 13.273438 13.5 13.875 L 13.5 28.125 C 13.5 28.726562 12.976562 29.25 12.375 29.25 Z M 12.375 29.25 "/>
<path style=" stroke:none;fill-rule:nonzero;fill:rgb(70.19608%,61.56863%,85.882354%);fill-opacity:1;" d="M 8.25 6 L 27.75 6 C 28.574219 6 29.25 6.675781 29.25 7.5 L 29.25 9 L 6.75 9 L 6.75 7.5 C 6.75 6.675781 7.425781 6 8.25 6 Z M 8.25 6 "/>
</g>
</svg>
