<?xml version="1.0" encoding="UTF-8"?>
<svg xmlns="http://www.w3.org/2000/svg" xmlns:xlink="http://www.w3.org/1999/xlink" width="36pt" height="36pt" viewBox="0 0 36 36" version="1.1">
<g id="surface58204">
<path style=" stroke:none;fill-rule:nonzero;fill:rgb(12.941177%,58.823532%,95.294118%);fill-opacity:1;" d="M 33 18 C 33 26.28125 26.28125 33 18 33 C 9.71875 33 3 26.28125 3 18 C 3 9.71875 9.71875 3 18 3 C 26.28125 3 33 9.71875 33 18 Z M 33 18 "/>
<path style=" stroke:none;fill-rule:nonzero;fill:rgb(89.019608%,94.901961%,99.215686%);fill-opacity:1;" d="M 17.820312 23.359375 C 17.273438 23.359375 16.824219 23.535156 16.472656 23.890625 C 16.117188 24.246094 15.945312 24.699219 15.945312 25.246094 C 15.945312 25.785156 16.117188 26.230469 16.460938 26.582031 C 16.804688 26.933594 17.257812 27.109375 17.820312 27.109375 C 18.382812 27.109375 18.835938 26.933594 19.179688 26.582031 C 19.523438 26.230469 19.695312 25.785156 19.695312 25.246094 C 19.695312 24.699219 19.523438 24.246094 19.171875 23.890625 C 18.820312 23.539062 18.359375 23.359375 17.820312 23.359375 Z M 21.886719 10.941406 C 20.976562 10.144531 19.699219 9.75 18.050781 9.75 C 16.421875 9.75 15.132812 10.167969 14.1875 11.003906 C 13.296875 11.796875 12.820312 12.882812 12.761719 14.25 L 12.75 14.25 L 12.75 15 L 16.125 15 L 16.132812 14.472656 C 16.144531 13.855469 16.328125 13.367188 16.671875 13.015625 C 17.015625 12.664062 17.480469 12.488281 18.054688 12.488281 C 19.265625 12.488281 19.871094 13.140625 19.871094 14.449219 C 19.871094 14.882812 19.753906 15.296875 19.519531 15.683594 C 19.289062 16.074219 18.820312 16.582031 18.117188 17.207031 C 17.414062 17.828125 16.929688 18.460938 16.667969 19.101562 C 16.402344 19.742188 16.269531 20.664062 16.269531 21.75 L 19.253906 21.75 L 19.300781 20.980469 C 19.386719 20.222656 19.722656 19.5625 20.316406 19 L 21.261719 18.105469 C 21.996094 17.394531 22.515625 16.746094 22.808594 16.164062 C 23.105469 15.578125 23.253906 14.957031 23.253906 14.300781 C 23.25 12.851562 22.796875 11.734375 21.886719 10.941406 Z M 21.886719 10.941406 "/>
</g>
</svg>
