<?xml version="1.0" encoding="UTF-8"?>
<svg xmlns="http://www.w3.org/2000/svg" xmlns:xlink="http://www.w3.org/1999/xlink" width="36pt" height="36pt" viewBox="0 0 36 36" version="1.1">
<g id="surface4320">
<path style=" stroke:none;fill-rule:nonzero;fill:rgb(56.470591%,79.215688%,97.647059%);fill-opacity:1;" d="M 30 33.75 L 6 33.75 L 6 2.25 L 22.5 2.25 L 30 9.75 Z M 30 33.75 "/>
<path style=" stroke:none;fill-rule:nonzero;fill:rgb(88.235295%,96.078432%,99.607843%);fill-opacity:1;" d="M 28.875 10.5 L 21.75 10.5 L 21.75 3.375 Z M 28.875 10.5 "/>
<path style=" stroke:none;fill-rule:nonzero;fill:rgb(39.215687%,70.980394%,96.470588%);fill-opacity:1;" d="M 30 20 L 28.875 18.910156 L 26.507812 21.207031 L 23.246094 20.746094 L 22.675781 23.992188 L 19.765625 25.539062 L 21.214844 28.5 L 19.765625 31.460938 L 22.675781 33.007812 L 22.804688 33.75 L 30 33.75 Z M 30 20 "/>
<path style=" stroke:none;fill-rule:nonzero;fill:rgb(98.431373%,75.294119%,17.647059%);fill-opacity:1;" d="M 28.875 21 L 27.023438 22.792969 L 24.472656 22.433594 L 24.027344 24.972656 L 21.75 26.183594 L 22.882812 28.5 L 21.75 30.816406 L 24.027344 32.027344 L 24.472656 34.566406 L 27.023438 34.207031 L 28.875 36 L 30.726562 34.207031 L 33.277344 34.566406 L 33.722656 32.027344 L 36 30.816406 L 34.867188 28.5 L 36 26.183594 L 33.722656 24.972656 L 33.277344 22.433594 L 30.726562 22.792969 Z M 28.875 21 "/>
</g>
</svg>
