<?xml version="1.0" encoding="UTF-8"?>
<svg xmlns="http://www.w3.org/2000/svg" xmlns:xlink="http://www.w3.org/1999/xlink" width="36pt" height="36pt" viewBox="0 0 36 36" version="1.1">
<g id="surface6423">
<path style=" stroke:none;fill-rule:nonzero;fill:rgb(100%,62.7451%,0%);fill-opacity:1;" d="M 28.5 9 L 16.5 9 L 13.5 6 L 6 6 C 4.351562 6 3 7.351562 3 9 L 3 27 C 3 28.648438 4.351562 30 6 30 L 29.25 30 C 30.523438 30 31.5 29.023438 31.5 27.75 L 31.5 12 C 31.5 10.351562 30.148438 9 28.5 9 Z M 28.5 9 "/>
<path style=" stroke:none;fill-rule:nonzero;fill:rgb(100%,79.215688%,15.686275%);fill-opacity:1;" d="M 31.648438 13.5 L 11.476562 13.5 C 10.050781 13.5 8.773438 14.550781 8.550781 15.976562 L 6 30 L 29.773438 30 C 31.199219 30 32.476562 28.949219 32.699219 27.523438 L 34.574219 17.023438 C 34.949219 15.226562 33.523438 13.5 31.648438 13.5 Z M 31.648438 13.5 "/>
</g>
</svg>
