<?xml version="1.0" encoding="UTF-8"?>
<svg xmlns="http://www.w3.org/2000/svg" xmlns:xlink="http://www.w3.org/1999/xlink" width="36pt" height="36pt" viewBox="0 0 36 36" version="1.1">
<g id="surface63321">
<path style=" stroke:none;fill-rule:nonzero;fill:rgb(100%,62.7451%,0%);fill-opacity:1;" d="M 30 9 L 16.5 9 L 13.5 6 L 6 6 C 4.351562 6 3 7.351562 3 9 L 3 15 L 33 15 L 33 12 C 33 10.351562 31.648438 9 30 9 Z M 30 9 "/>
<path style=" stroke:none;fill-rule:nonzero;fill:rgb(100%,79.215688%,15.686275%);fill-opacity:1;" d="M 30 9 L 6 9 C 4.351562 9 3 10.351562 3 12 L 3 27 C 3 28.648438 4.351562 30 6 30 L 30 30 C 31.648438 30 33 28.648438 33 27 L 33 12 C 33 10.351562 31.648438 9 30 9 Z M 30 9 "/>
<path style=" stroke:none;fill-rule:nonzero;fill:rgb(26.274511%,62.7451%,27.843139%);fill-opacity:1;" d="M 28.5 21 C 24.359375 21 21 24.359375 21 28.5 C 21 32.640625 24.359375 36 28.5 36 C 32.640625 36 36 32.640625 36 28.5 C 36 24.359375 32.640625 21 28.5 21 Z M 28.5 21 "/>
<path style=" stroke:none;fill-rule:nonzero;fill:rgb(100%,100%,100%);fill-opacity:1;" d="M 27 24 L 30 24 L 30 33 L 27 33 Z M 27 24 "/>
<path style=" stroke:none;fill-rule:nonzero;fill:rgb(100%,100%,100%);fill-opacity:1;" d="M 24 27 L 33 27 L 33 30 L 24 30 Z M 24 27 "/>
</g>
</svg>
