<?xml version="1.0" encoding="utf-8"?>
<svg width="48px" height="48px" viewBox="0 0 48 48" version="1.1" xmlns:xlink="http://www.w3.org/1999/xlink" xmlns="http://www.w3.org/2000/svg">
  <defs>
    <path d="M48 0L48 0L48 48L0 48L0 0L48 0Z" id="path_1" />
    <path d="M36 0L36 0L36 36L0 36L0 0L36 0Z" id="path_2" />
    <clipPath id="clip_1">
      <use xlink:href="#path_1" clip-rule="evenodd" fill-rule="evenodd" />
    </clipPath>
    <clipPath id="clip_2">
      <use xlink:href="#path_2" clip-rule="evenodd" fill-rule="evenodd" />
    </clipPath>
  </defs>
  <g id="Play">
    <path d="M48 0L48 0L48 48L0 48L0 0L48 0Z" id="Play" fill="none" stroke="none" />
    <path d="M14.6 37.9994L14.6 14L38.5994 25.9997L14.6 37.9994Z" id="surface5081" fill="#2196F3" stroke="none" clip-path="url(#clip_1)" />
    <g id="Fast Forward(2)" clip-path="url(#clip_1)">
      <path d="M36 0L36 0L36 36L0 36L0 0L36 0Z" id="Fast-Forward(2)" fill="none" stroke="none" transform="translate(11 18.8)" />
      <path d="M16.5 20.143L16.5 25.5006L26.9994 18.0003L16.5 10.5L16.5 15.8577L9 10.5L9 25.5006L16.5 20.143Z" id="surface6558" fill="#FFFFFF" fill-rule="evenodd" stroke="none" clip-path="url(#clip_2)" transform="translate(11 18.8)" />
    </g>
  </g>
</svg>