<?xml version="1.0" encoding="UTF-8"?>
<svg xmlns="http://www.w3.org/2000/svg" xmlns:xlink="http://www.w3.org/1999/xlink" width="36pt" height="36pt" viewBox="0 0 36 36" version="1.1">
<g id="surface17109">
<path style=" stroke:none;fill-rule:nonzero;fill:rgb(20.392157%,59.607846%,85.882354%);fill-opacity:1;" d="M 29.25 29.25 L 3.75 29.25 L 3.75 3.75 L 25.5 3.75 L 29.25 7.5 Z M 29.25 29.25 "/>
<path style=" stroke:none;fill-rule:nonzero;fill:rgb(100%,100%,100%);fill-opacity:1;" d="M 27 27 C 27 27.414062 26.664062 27.75 26.25 27.75 L 6.75 27.75 C 6.335938 27.75 6 27.414062 6 27 L 6 16.5 C 6 16.085938 6.335938 15.75 6.75 15.75 L 26.25 15.75 C 26.664062 15.75 27 16.085938 27 16.5 Z M 27 27 "/>
<path style=" stroke:none;fill-rule:nonzero;fill:rgb(81.176472%,84.705883%,86.274511%);fill-opacity:1;" d="M 9 21 L 24 21 L 24 22.5 L 9 22.5 Z M 9 18 L 24 18 L 24 19.5 L 9 19.5 Z M 9 24 L 24 24 L 24 25.5 L 9 25.5 Z M 9 24 "/>
<path style=" stroke:none;fill-rule:nonzero;fill:rgb(16.078432%,50.196081%,72.549021%);fill-opacity:1;" d="M 6 3.75 L 6 10.5 C 6 11.328125 6.671875 12 7.5 12 L 17.25 12 C 18.078125 12 18.75 11.328125 18.75 10.5 L 18.75 3.75 Z M 6 3.75 "/>
<path style=" stroke:none;fill-rule:nonzero;fill:rgb(69.01961%,74.509805%,77.254903%);fill-opacity:1;" d="M 10.5 3.75 L 10.5 10.5 C 10.5 11.328125 11.171875 12 12 12 L 21.75 12 C 22.578125 12 23.25 11.328125 23.25 10.5 L 23.25 3.75 Z M 10.5 3.75 "/>
<path style=" stroke:none;fill-rule:nonzero;fill:rgb(14.901961%,19.607843%,21.960784%);fill-opacity:1;" d="M 17.25 5.25 L 20.25 5.25 L 20.25 10.5 L 17.25 10.5 Z M 17.25 5.25 "/>
<path style=" stroke:none;fill-rule:nonzero;fill:rgb(89.803922%,45.09804%,45.09804%);fill-opacity:1;" d="M 29.894531 32.007812 L 32.007812 29.894531 C 32.332031 29.570312 32.332031 29.050781 32.007812 28.726562 L 31.011719 27.730469 L 27.730469 31.011719 L 28.726562 32.007812 C 29.050781 32.332031 29.570312 32.332031 29.894531 32.007812 "/>
<path style=" stroke:none;fill-rule:nonzero;fill:rgb(100%,59.607846%,0%);fill-opacity:1;" d="M 19.101562 22.386719 L 22.382812 19.105469 L 29.371094 26.089844 L 26.089844 29.371094 Z M 19.101562 22.386719 "/>
<path style=" stroke:none;fill-rule:nonzero;fill:rgb(69.01961%,74.509805%,77.254903%);fill-opacity:1;" d="M 26.085938 29.375 L 29.367188 26.089844 L 31.011719 27.730469 L 27.730469 31.011719 Z M 26.085938 29.375 "/>
<path style=" stroke:none;fill-rule:nonzero;fill:rgb(100%,75.686276%,2.745098%);fill-opacity:1;" d="M 22.386719 19.105469 L 18 18 L 19.105469 22.386719 Z M 22.386719 19.105469 "/>
<path style=" stroke:none;fill-rule:nonzero;fill:rgb(21.568628%,27.843139%,30.980393%);fill-opacity:1;" d="M 20.21875 18.558594 L 18 18 L 18.558594 20.21875 Z M 20.21875 18.558594 "/>
</g>
</svg>
