<?xml version="1.0" encoding="UTF-8"?>
<svg xmlns="http://www.w3.org/2000/svg" xmlns:xlink="http://www.w3.org/1999/xlink" width="36pt" height="36pt" viewBox="0 0 36 36" version="1.1">
<g id="surface14760">
<path style=" stroke:none;fill-rule:nonzero;fill:rgb(20.392157%,59.607846%,85.882354%);fill-opacity:1;" d="M 31.5 31.5 L 4.5 31.5 L 4.5 4.5 L 27.75 4.5 L 31.5 8.25 Z M 31.5 31.5 "/>
<path style=" stroke:none;fill-rule:nonzero;fill:rgb(100%,100%,100%);fill-opacity:1;" d="M 29.25 29.25 C 29.25 29.664062 28.914062 30 28.5 30 L 7.5 30 C 7.085938 30 6.75 29.664062 6.75 29.25 L 6.75 18.75 C 6.75 18.335938 7.085938 18 7.5 18 L 28.5 18 C 28.914062 18 29.25 18.335938 29.25 18.75 Z M 29.25 29.25 "/>
<path style=" stroke:none;fill-rule:nonzero;fill:rgb(81.176472%,84.705883%,86.274511%);fill-opacity:1;" d="M 9.75 23.25 L 26.25 23.25 L 26.25 24.75 L 9.75 24.75 Z M 9.75 20.25 L 26.25 20.25 L 26.25 21.75 L 9.75 21.75 Z M 9.75 26.25 L 26.25 26.25 L 26.25 27.75 L 9.75 27.75 Z M 9.75 26.25 "/>
<path style=" stroke:none;fill-rule:nonzero;fill:rgb(16.078432%,50.196081%,72.549021%);fill-opacity:1;" d="M 6.75 4.5 L 6.75 12 C 6.75 12.828125 7.421875 13.5 8.25 13.5 L 19.5 13.5 C 20.328125 13.5 21 12.828125 21 12 L 21 4.5 Z M 6.75 4.5 "/>
<path style=" stroke:none;fill-rule:nonzero;fill:rgb(69.01961%,74.509805%,77.254903%);fill-opacity:1;" d="M 11.25 4.5 L 11.25 12 C 11.25 12.828125 11.921875 13.5 12.75 13.5 L 24 13.5 C 24.828125 13.5 25.5 12.828125 25.5 12 L 25.5 4.5 Z M 11.25 4.5 "/>
<path style=" stroke:none;fill-rule:nonzero;fill:rgb(14.901961%,19.607843%,21.960784%);fill-opacity:1;" d="M 19.5 6 L 22.5 6 L 22.5 12 L 19.5 12 Z M 19.5 6 "/>
</g>
</svg>
