<?xml version="1.0" encoding="UTF-8"?>
<svg xmlns="http://www.w3.org/2000/svg" xmlns:xlink="http://www.w3.org/1999/xlink" width="36pt" height="36pt" viewBox="0 0 36 36" version="1.1">
<g id="surface7336">
<path style=" stroke:none;fill-rule:nonzero;fill:rgb(38.039216%,38.039216%,38.039216%);fill-opacity:1;" d="M 21.878906 24 L 24 21.878906 L 33 30.878906 L 30.878906 33 Z M 21.878906 24 "/>
<path style=" stroke:none;fill-rule:nonzero;fill:rgb(38.039216%,38.039216%,38.039216%);fill-opacity:1;" d="M 27 15 C 27 21.628906 21.628906 27 15 27 C 8.371094 27 3 21.628906 3 15 C 3 8.371094 8.371094 3 15 3 C 21.628906 3 27 8.371094 27 15 "/>
<path style=" stroke:none;fill-rule:nonzero;fill:rgb(21.568628%,27.843139%,30.980393%);fill-opacity:1;" d="M 24.359375 26.480469 L 26.480469 24.359375 L 33 30.878906 L 30.878906 33 Z M 24.359375 26.480469 "/>
<path style=" stroke:none;fill-rule:nonzero;fill:rgb(39.215687%,70.980394%,96.470588%);fill-opacity:1;" d="M 5.25 15 C 5.25 9.613281 9.613281 5.25 15 5.25 C 20.386719 5.25 24.75 9.613281 24.75 15 C 24.75 20.386719 20.386719 24.75 15 24.75 C 9.613281 24.75 5.25 20.386719 5.25 15 "/>
<path style=" stroke:none;fill-rule:nonzero;fill:rgb(89.019608%,94.901961%,99.215686%);fill-opacity:1;" d="M 10.5 10.5 L 19.5 10.5 L 19.5 19.5 L 10.5 19.5 Z M 10.5 10.5 "/>
</g>
</svg>
